<?xml version="1.0" standalone="no"?><!DOCTYPE svg PUBLIC "-//W3C//DTD SVG 1.1//EN" "http://www.w3.org/Graphics/SVG/1.1/DTD/svg11.dtd"><svg t="1686070293810" class="icon" viewBox="0 0 1024 1024" version="1.1" xmlns="http://www.w3.org/2000/svg" p-id="6825" width="36" height="36" xmlns:xlink="http://www.w3.org/1999/xlink"><path d="M552.321846 285.001009c6.302543 18.23941 15.043624 32.509415 26.161846 42.811038 8.680706-7.92346 18.611893-22.594601 29.730115-44.00012C596.321966 284.615223 577.651744 285.001009 552.321846 285.001009z" fill="#D71909" p-id="6826"></path><path d="M652.957871 152.792918c-39.392172-23.50125-83.689051-32.910551-127.986953-32.910551-44.296879 0-88.623433 14.09195-127.98593 32.910551-113.211435 65.822125-147.668201 202.043622-83.659375 310.126246l211.646328 357.158423 211.646328-357.158423C800.595372 354.836541 766.10893 218.615043 652.957871 152.792918zM400.106072 337.325725l-3.567245 1.189082-8.324596-24.972764 2.378164-2.378164c26.935466-25.359574 44.357254-54.30072 52.324716-86.811158 19.027355 6.347568 29.730115 11.104919 32.108279 14.270005 0 0.803295-0.831948 1.992377-2.378164 3.567245-3.983731 1.591241-7.135514 4.370541-9.513678 8.324596-1.605567 1.591241-3.567245 4.370541-5.946432 8.324596-21.405519 30.131251-35.675524 47.968501-42.811038 53.513798l41.621956-1.189082c7.135514-10.301623 14.270005-25.359574 21.405519-45.189202 15.816221 7.937786 24.972764 14.671141 27.350928 20.216437 0 0.803295-1.189082 1.992377-3.567245 3.567245-3.211135 1.590218-5.588275 3.567245-7.134491 5.946432-1.605567 1.590218-5.172813 6.347568-10.70276 14.270005-27.767414 38.856983-47.567365 64.216557-59.459207 76.108399 26.935466-4.756327 48.756447-9.112542 65.405639-13.080923l-1.189082 24.972764c-36.508495 4.756327-64.633043 9.513678-84.432994 14.270005l-4.756327 1.189082-11.891841-27.351951 2.378164-1.189082c13.438057-3.954055 31.275307-22.193465 53.513798-54.702879C424.662351 331.781452 410.392346 334.159616 400.106072 337.325725zM400.106072 472.894354l-9.513678-26.161846 104.649432-20.216437 2.378164 23.783683L400.106072 472.894354zM608.213807 501.434364c-19.859303-18.23941-51.551096-35.274388-95.135754-51.135634l16.649192-22.594601c36.449143 15.861246 69.330018 32.509415 98.702999 49.946552L608.213807 501.434364zM615.349321 445.542402c-24.616654-17.437138-49.589418-29.730115-74.919317-36.864606l14.270005-21.405519c15.043624 6.347568 39.599903 17.838274 73.730235 34.486442L615.349321 445.542402zM648.646682 397.975037c-30.919197-11.891841-54.345746-24.972764-70.161966-39.243793-20.6319 15.861246-44.833091 29.730115-72.541153 41.621956-3.983731-9.513678-9.156544-17.437138-15.459087-23.783683 28.54001-7.92346 52.323693-19.413142 71.351048-34.486442-11.118222-13.467733-18.670222-26.161846-22.594601-38.054711-10.345626 17.451464-19.859303 31.722492-28.541033 42.811038-4.756327-6.332219-12.307304-10.70276-22.594601-13.080923 24.557302-26.949792 45.189202-64.602344 61.83737-112.973004 11.059893 2.378164 22.179139 6.748704 33.29736 13.080923 0 0.803295-0.831948 1.992377-2.378164 3.567245-6.361895 5.559623-12.724813 14.672164-19.027355 27.351951 43.584658-0.787946 72.124667-1.977028 85.622076-3.567245-11.118222 26.161846-28.956495 53.513798-53.513798 82.054831 17.421788 13.482059 41.978067 22.208814 73.730235 26.161846C660.538523 375.781572 654.176628 385.29525 648.646682 397.975037z" fill="#D71909" p-id="6827"></path></svg>