<?xml version="1.0" standalone="no"?><!DOCTYPE svg PUBLIC "-//W3C//DTD SVG 1.1//EN" "http://www.w3.org/Graphics/SVG/1.1/DTD/svg11.dtd"><svg t="1686070433033" class="icon" viewBox="0 0 1024 1024" version="1.1" xmlns="http://www.w3.org/2000/svg" p-id="7233" xmlns:xlink="http://www.w3.org/1999/xlink" width="36" height="36"><path d="M642.662387 136.799666c-41.346687-24.686239-87.878466-34.570353-134.440945-34.570353-46.561455 0-93.093235 14.802124-134.439922 34.570353-118.919437 69.140707-155.082054 212.231659-87.877443 325.764412L508.221442 837.732689l222.319411-375.168612C797.745465 349.031325 761.520425 205.940372 642.662387 136.799666zM515.71716 229.455949c10.806113 1.671059 19.11229 2.49789 24.982998 2.49789l56.213279 0c9.118682 0 19.549242-0.827855 31.229259-2.49789-2.49789 11.663644-3.372817 20.407796-2.49789 26.232454l0 61.208037c0 7.494695 0.811482 17.08205 2.49789 28.730345l-28.730345 0c0.811482-5.823636 1.249457-9.993608 1.249457-12.491499l-49.967018 0 0 67.454298c-0.873903 6.667863 2.873444 10.41521 11.242042 11.242042 17.488303 1.671059 32.041764 0.843204 43.721781-2.49789 9.118682-3.325745 13.740956-15.395642 13.740956-36.225039 9.118682 9.993608 18.73776 16.238846 28.730345 18.73776-4.996804 20.829398-11.242042 33.727149-18.73776 38.723953-4.996804 2.49789-17.926278 4.590552-38.723953 6.246261-17.489326 0.843204-30.854728 0.421602-39.97341-1.249457-17.488303-3.325745-25.857924-11.242042-24.982998-23.733541l0-84.942601c-0.873903-4.996804-1.685385-11.242042-2.49789-18.73776 9.993608 1.671059 17.862833 2.49789 23.733541 2.49789l53.714366 0 0-56.212256-53.714366 0c-16.675798 0-27.106358 0.421602-31.229259 1.249457L515.718183 229.455949zM641.882628 490.530013c-63.333444 0-108.302635-1.671059-134.909619-4.996804-27.480888-2.49789-47.093575-7.916297-58.710147-16.238846-21.672602-15.818267-35.413558-30.807656-41.221844-44.970214-5.870708 27.481911-14.177907 52.043307-24.982998 73.700559-6.683213-8.337899-14.989389-15.412015-24.982998-21.23565 20.798698-22.485107 32.04074-62.036915 33.727149-118.66975 22.485107 1.671059 33.727149 4.168949 33.727149 7.494695 0 0.843204-0.436952 1.671059-1.249457 2.49789-4.184299 6.667863-7.494695 16.238846-9.993608 28.730345 7.494695 12.491499 14.989389 23.328311 22.485107 32.477692l0-91.187839L413.286256 338.13209c-14.989389 0-29.605272 0.843204-43.720757 2.49789l0-27.480888c11.617595 0.843204 26.232454 1.671059 43.720757 2.49789l21.23565 0 0-38.723953c-23.359011 0-42.4713 0.843204-57.46069 2.49789l0-26.232454c15.801894 0.843204 34.976606 1.249457 57.46069 1.249457 0.811482-22.485107-0.436952-38.302351-3.747347-47.468105 23.296589 1.671059 34.538631 3.747347 33.727149 6.246261 0 0.843204-0.436952 2.49789-1.249457 4.996804-2.49789 4.168949-3.747347 8.337899-3.747347 12.491499l0 22.485107c22.485107 0 37.849026-0.406253 46.218648-1.249457l0 27.480888c-12.491499-1.655709-27.918863-2.49789-46.218648-2.49789l0 38.723953 11.242042 0c10.80509 0 24.546046-0.827855 41.221844-2.49789l0 27.480888c-14.176884-1.655709-27.91784-2.49789-41.221844-2.49789l-9.993608 0 0 37.474496 9.993608 0c21.61018 0 35.789111-0.405229 42.4713-1.249457l0 28.730345c-14.176884-1.654686-28.355815-2.49789-42.4713-2.49789l-9.993608 0 0 47.468105c31.603789 15.832594 97.80863 18.73776 198.61657 8.744151C648.502395 467.623303 642.694109 478.865345 641.882628 490.530013z" fill="#1296db" p-id="7234"></path></svg>